<!DOCTYPE svg PUBLIC "-//W3C//DTD SVG 1.1//EN" "http://www.w3.org/Graphics/SVG/1.1/DTD/svg11.dtd">

<!-- Uploaded to: SVG Repo, www.svgrepo.com, Transformed by: SVG Repo Mixer Tools -->
<svg fill="#000000" width="800px" height="800px" viewBox="-64 -64 768.00 768.00"
    xmlns="http://www.w3.org/2000/svg" stroke="#000000">

    <g id="SVGRepo_bgCarrier" stroke-width="0">

        <path transform="translate(-64, -64), scale(24)"
            d="M16,31.427849212563352C18.796321714657154,30.911516111069833,18.203010195654393,26.260466343577505,19.81211725754434,23.915943051533482C20.55763613883941,22.829696882305967,21.755955430373515,22.201389087781408,22.84311394077848,21.457201264861038C24.367833931859373,20.413491410349586,26.790513584530366,20.324669747406134,27.531322939921743,18.631949212122578C28.22612365806826,17.044356621698256,27.131857623298146,15.15444228566553,26.25588066719021,13.65916216358974C25.46608394889829,12.310990473560626,23.604302087813394,11.915017926681026,22.808597569180893,10.570324622968815C21.838433776382274,8.930805523690125,22.27451651731415,6.742734860860423,21.22311563289693,5.154088631518066C19.892499436736752,3.143553512077459,18.381605273926574,0.6578294548404837,16.000000000000004,0.28266649399148847C13.725493069135933,-0.07562577383157704,11.574368762597276,1.7725992199458929,9.919381255721124,3.3734650731060967C8.413919402688563,4.829695083146566,8.534994043089535,7.3776741943751425,7.093840843879425,8.897575075842472C5.467576918092872,10.612701528502924,1.6182634286476354,10.29413006839317,1.1589170889394733,12.612619672667261C0.6923815177787294,14.96739596727641,4.460866870895943,16.180937122773397,5.1982269655065565,18.465434206966613C5.8468054176879924,20.47486703864363,3.6602907808275407,23.144041369525016,5.066510177209848,24.719167181291734C6.509855707091971,26.335878489117675,9.596515928206282,24.32768942474233,11.443756131541974,25.4611378808546C13.603786499821616,26.786511311803718,13.50789285234811,31.888009932289062,16,31.427849212563352"
            fill="#ffffff" strokewidth="0" />

    </g>

    <g id="SVGRepo_tracerCarrier" stroke-linecap="round" stroke-linejoin="round" />

    <g id="SVGRepo_iconCarrier">

        <path
            d="M312 8C175 8 64 119 64 256s111 248 248 248 248-111 248-248c0-25.38-3.82-49.86-10.9-72.91l63.92 52.97L640 173.49l-98.2-10.89c-.65-1.6-1.31-3.19-2-4.77l94.89-40.43L595 61.64l-60.41 84.91C494.17 64.46 409.7 8 312 8zM191.99 256c0-9.3 4.1-17.5 10.5-23.4l-31-9.3c-8.5-2.5-13.3-11.5-10.7-19.9 2.5-8.5 11.4-13.2 19.9-10.7l80 24c8.5 2.5 13.3 11.5 10.7 19.9-2.1 6.9-8.4 11.4-15.3 11.4-.5 0-1.1-.2-1.7-.2.7 2.7 1.7 5.3 1.7 8.2 0 17.7-14.3 32-32 32s-32.1-14.3-32.1-32zm252.61-32.7l-31 9.3c6.3 5.8 10.5 14.1 10.5 23.4 0 17.7-14.3 32-32 32s-32-14.3-32-32c0-2.9.9-5.6 1.7-8.2-.6.1-1.1.2-1.7.2-6.9 0-13.2-4.5-15.3-11.4-2.5-8.5 2.3-17.4 10.7-19.9l80-24c8.4-2.5 17.4 2.3 19.9 10.7 2.5 8.5-2.3 17.4-10.8 19.9zm-265.19-52.28h262.56c42.35 0 54.97 49.74 53.8 83.99-1.18 34.83-41.79 72.53-72.23 72.53-61.58 0-73.62-40.25-112.85-40.28-39.23.03-51.27 40.28-112.85 40.28-30.44 0-71.05-37.7-72.23-72.53-1.17-34.25 11.45-83.99 53.8-83.99z" />

    </g>

</svg>